<?xml version="1.0" standalone="no"?><!DOCTYPE svg PUBLIC "-//W3C//DTD SVG 1.1//EN" "http://www.w3.org/Graphics/SVG/1.1/DTD/svg11.dtd"><svg t="1677638491005" class="icon" viewBox="0 0 1025 1024" version="1.1" xmlns="http://www.w3.org/2000/svg" p-id="3632" xmlns:xlink="http://www.w3.org/1999/xlink" width="128.125" height="128"><path d="M944 307v497H80V307h864m20-80H60c-33.1 0-60 26.9-60 60v537c0 33.1 26.9 60 60 60h904c33.1 0 60-26.9 60-60V287c0-33.1-26.9-60-60-60z" fill="" p-id="3633"></path><path d="M540 135v171h-56V135h56m20-80h-96c-33.1 0-60 26.9-60 60v211c0 33.1 26.9 60 60 60h96c33.1 0 60-26.9 60-60V115c0-33.1-26.9-60-60-60zM390 773.8c-22.1 0-40-17.9-40-40v-75.3c0-0.8-0.6-1.4-1.4-1.4H236.9c-0.8 0-1.4 0.6-1.4 1.4v75.3c0 22.1-17.9 40-40 40s-40-17.9-40-40v-75.3c0-44.9 36.5-81.4 81.4-81.4h111.7c44.9 0 81.4 36.5 81.4 81.4v75.3c0 22.1-17.9 40-40 40zM292.8 396.3c-43.8 0-79.3 35.5-79.3 79.3s35.5 79.3 79.3 79.3 79.3-35.5 79.3-79.3-35.6-79.3-79.3-79.3zM805 516H572c-22.1 0-40-17.9-40-40s17.9-40 40-40h233c22.1 0 40 17.9 40 40s-17.9 40-40 40zM706 640.5H572c-22.1 0-40-17.9-40-40s17.9-40 40-40h134c22.1 0 40 17.9 40 40s-17.9 40-40 40zM804 765H572c-22.1 0-40-17.9-40-40s17.9-40 40-40h232c22.1 0 40 17.9 40 40s-17.9 40-40 40z" fill="" p-id="3634"></path></svg>