<?xml version="1.0" standalone="no"?><!DOCTYPE svg PUBLIC "-//W3C//DTD SVG 1.1//EN" "http://www.w3.org/Graphics/SVG/1.1/DTD/svg11.dtd"><svg t="1687922504398" class="icon" viewBox="0 0 1024 1024" version="1.1" xmlns="http://www.w3.org/2000/svg" p-id="7522" xmlns:xlink="http://www.w3.org/1999/xlink" width="128" height="128"><path d="M409.6 317.44h112.64a20.48 20.48 0 0 0 0-40.96H409.6a20.48 20.48 0 0 0 0 40.96zM409.6 450.56h266.24a20.48 20.48 0 0 0 0-40.96H409.6a20.48 20.48 0 0 0 0 40.96zM542.72 573.44a20.48 20.48 0 0 0-20.48-20.48H409.6a20.48 20.48 0 0 0 0 40.96h112.64a20.48 20.48 0 0 0 20.48-20.48z" p-id="7523"></path><path d="M880.64 691.9168v-391.168a20.48 20.48 0 0 0-5.2224-14.0288L689.7664 78.5408A20.48 20.48 0 0 0 674.5088 71.68H378.88a122.88 122.88 0 0 0-121.0368 102.4A123.392 123.392 0 0 0 143.36 296.96v532.48a123.392 123.392 0 0 0 122.88 122.88h194.56a20.48 20.48 0 0 0 0-40.96H266.24a82.432 82.432 0 0 1-81.92-81.92V296.96a81.92 81.92 0 0 1 71.68-81.92v512a123.392 123.392 0 0 0 122.88 122.88h146.944A194.56 194.56 0 0 0 901.12 778.24a192.512 192.512 0 0 0-20.48-86.3232zM829.44 296.96H727.04a40.96 40.96 0 0 1-40.96-40.96V135.9872zM378.88 808.96a82.432 82.432 0 0 1-81.92-81.92V194.56a82.432 82.432 0 0 1 81.92-81.92h266.24v143.36a81.92 81.92 0 0 0 81.92 81.92h112.64v298.8032A194.56 194.56 0 0 0 512 778.24a190.3616 190.3616 0 0 0 2.6624 30.72z m327.68 122.88a153.6 153.6 0 1 1 153.6-153.6 153.6 153.6 0 0 1-153.6 153.6z" p-id="7524"></path><path d="M789.4016 738.2016L737.28 790.2208l-52.1216-52.0192a20.48 20.48 0 0 0-28.8768 0l-56.32 56.32a20.48 20.48 0 0 0 28.8768 28.8768l41.8816-41.7792 52.1216 52.0192a20.48 20.48 0 0 0 28.8768 0l66.56-66.56a20.48 20.48 0 0 0-28.8768-28.8768z" p-id="7525"></path></svg>