<?xml version="1.0" standalone="no"?><!DOCTYPE svg PUBLIC "-//W3C//DTD SVG 1.1//EN" "http://www.w3.org/Graphics/SVG/1.1/DTD/svg11.dtd"><svg t="1672623089308" class="icon" viewBox="0 0 1024 1024" version="1.1" xmlns="http://www.w3.org/2000/svg" p-id="3239" xmlns:xlink="http://www.w3.org/1999/xlink" width="128" height="128"><path d="M288 320a32 32 0 1 1 0-64h448a32 32 0 0 1 0 64H288z m0 224a32 32 0 0 1 0-64h448a32 32 0 0 1 0 64H288z m0 224a32 32 0 0 1 0-64h128a32 32 0 0 1 0 64H288z" p-id="3240"></path><path d="M807.968 802.24a32 32 0 0 1 41.984 48.32l-153.856 133.6a32 32 0 0 1-20.992 7.84H195.04C140.16 992 96 946.624 96 891.072V132.928C96 77.376 140.16 32 195.04 32h633.92C883.84 32 928 77.376 928 132.928v564.32a32 32 0 1 1-64 0v-564.32C864 112.32 848.096 96 828.96 96H195.04C175.904 96 160 112.32 160 132.928v758.144C160 911.68 175.904 928 195.04 928h468.096l144.832-125.76z" p-id="3241"></path><path d="M704 959.136a32 32 0 1 1-64 0v-186.24C640 717.408 684.16 672 739.04 672h157.632a32 32 0 0 1 0 64H739.04c-19.136 0-35.04 16.32-35.04 36.928v186.24z" p-id="3242"></path></svg>