<?xml version="1.0" standalone="no"?><!DOCTYPE svg PUBLIC "-//W3C//DTD SVG 1.1//EN" "http://www.w3.org/Graphics/SVG/1.1/DTD/svg11.dtd"><svg t="1688348324513" class="icon" viewBox="0 0 1024 1024" version="1.1" xmlns="http://www.w3.org/2000/svg" p-id="1912" xmlns:xlink="http://www.w3.org/1999/xlink" width="128" height="128"><path d="M608 889.6c-9.6 0-19.2-6.4-22.4-19.2L448 294.4l-105.6 416c-3.2 9.6-12.8 19.2-22.4 19.2-9.6 0-19.2-6.4-22.4-16l-57.6-176H96c-12.8 0-25.6-9.6-25.6-25.6S80 486.4 96 486.4h160c9.6 0 19.2 6.4 22.4 16l38.4 115.2 108.8-432c3.2-9.6 12.8-19.2 22.4-19.2 9.6 0 19.2 6.4 22.4 19.2L608 758.4l105.6-444.8c3.2-9.6 12.8-19.2 22.4-19.2 9.6 0 19.2 6.4 22.4 16l57.6 176h112c12.8 0 25.6 9.6 25.6 25.6s-9.6 25.6-25.6 25.6H800c-9.6 0-19.2-6.4-22.4-16l-38.4-112-108.8 460.8c0 9.6-12.8 19.2-22.4 19.2z" p-id="1913"></path></svg>