<?xml version="1.0" standalone="no"?><!DOCTYPE svg PUBLIC "-//W3C//DTD SVG 1.1//EN" "http://www.w3.org/Graphics/SVG/1.1/DTD/svg11.dtd"><svg t="1677292554988" class="icon" viewBox="0 0 1024 1024" version="1.1" xmlns="http://www.w3.org/2000/svg" p-id="2768" xmlns:xlink="http://www.w3.org/1999/xlink" width="128" height="128"><path d="M698.9 330l25.5-42H546l-25.5 42zM739.8 330h176.9c12.3 0 21.8-9.2 21.8-21s-9.6-21-21.8-21H765.3l-25.5 42zM252.4 288c-6.1 0-11.8-3.2-15-8.4-9.2-15.3-24.9-23.7-44-23.7-29.5 0-53.4 23.9-53.4 53.2 0 29.2 24 53 53.4 53 19.2 0 34.8-8.4 44-23.6 3.2-5.2 8.9-8.4 15-8.4h227.2l25.5-42H252.4z" fill="#FFFFFF" p-id="2769"></path><path d="M489.4 365s0.1 0 0 0h427.4c31.3 0 56.8-25.1 56.8-56s-25.5-56-56.8-56H345v-84c0-29-24.9-49-53.9-49H95.7c-29 0-51.7 20-51.7 49v684.5c0 29 22.7 50.5 51.7 50.5h195.4c29 0 53.9-21.6 53.9-50.5V365h144.4z m449.2-56c0 11.8-9.6 21-21.8 21h-177l25.5-42h151.5c12.2 0 21.8 9.2 21.8 21z m-214.2-21l-25.5 42H520.5l25.5-42h178.4z m-244.8 42H252.4c-6.1 0-11.8 3.2-15 8.4-9.2 15.2-24.9 23.6-44 23.6-29.5 0-53.4-23.8-53.4-53 0-29.3 24-53.2 53.4-53.2 19.2 0 34.8 8.4 44 23.7 3.2 5.2 8.9 8.4 15 8.4H505L479.6 330zM310 853.5c0 9.6-9.2 15.5-18.9 15.5H95.7C86 869 79 863.1 79 853.5V169c0-9.6 7-14 16.7-14h195.4c9.7 0 18.9 4.4 18.9 14v84h-48.4c-16-20.5-40.4-32.1-68.2-32.1-48.8 0-88.4 39.6-88.4 88.2 0 48.5 39.7 88 88.4 88 27.8 0 52.1-11.6 68.2-32.1H310v488.5zM625 701h140v28H625z" p-id="2770"></path><path d="M532.8 666.1c-28.9 0-52.4 23.5-52.4 52.4s23.5 52.4 52.4 52.4 52.4-23.5 52.4-52.4-23.5-52.4-52.4-52.4z m0 76.9c-13.5 0-24.5-11-24.5-24.5s11-24.5 24.5-24.5 24.5 11 24.5 24.5c0.1 13.5-10.9 24.5-24.5 24.5zM849.1 666.1c-28.9 0-52.4 23.5-52.4 52.4s23.5 52.4 52.4 52.4 52.4-23.5 52.4-52.4-23.5-52.4-52.4-52.4z m0 76.9c-13.5 0-24.6-11-24.6-24.5s11-24.5 24.6-24.5c13.5 0 24.5 11 24.5 24.5s-11 24.5-24.5 24.5z" p-id="2771"></path><path d="M898.2 556.2c-21.6-43.6-57.4-95.1-106.7-95.1h-91.3c-49.9 0-52.4-0.1-104.6-0.1-55.2 0-90.7 47.2-111.8 91.2-23.8-4.1-67.3-7.7-76 22.1-0.7 2.3 0.1 4.5 0.1 6.6v4.4c0 23.7 30.2 38.9 48.1 45.9-11.4 21.6-39.7 77.8-39.7 114s12.6 61.8 18.4 71.4l-0.2 56.9c-0.1 2.1-0.2 13.2 7.7 21.5 3.7 3.8 10.3 8.9 21.2 8.9h48.1c14.5 0 29.3-10.9 29.3-29.9v-33h306.8l0.1 32.5c-0.1 2.1-0.1 12.9 7.9 21.1 3.6 3.8 10.2 8.3 21 8.3h41.1c13.9 0 29.2-9 29.2-28.9v-53c7-9.2 19-30.4 19-76.3 0-41.3-19.4-85.5-32.9-111.3 20.9-8.7 53.6-27.2 45.2-55.8-9.1-30.6-57.1-25.7-80-21.4z m-302.5-66.7c52.2 0 54.6-0.2 104.6-0.2l91.3 0.4C839.7 489.7 879 575 893 617H489.6c10.9-42 43.4-127.5 106.1-127.5z m-162.5 92.7c1.3-4.5 18.7-6.1 39.3-3.4-3.7 9.7-6.6 18.6-8.8 26.1-17.4-7.3-32-17.6-30.5-22.7z m491.9 221.2L919 806v68.2c0 0.4-0.2 0.6-0.3 0.8-0.3 0.1-0.7 0.1-1 0.2h-41.9c-0.1-0.3-0.1-0.8-0.1-1.2l-0.1-60.9H513v61.1c0 0.3 0 1-0.1 1.2-0.4 0.1-1 0.7-1.3 0.7h-48.1c-0.5 0 0-0.5-0.3-0.5-0.1-0.3 0.7-1 0.7-1.4v-66l-3.5-3.7c-0.2-0.2-16.5-22.6-16.5-58.6 0-27.7 22.7-79.9 35.6-100.9h427.1c12.2 21 31.2 63.7 31.2 100.4 0.1 42.8-10.6 55.7-12.7 58z m-5.2-194.7c-2-6-5.3-15.2-9.8-26.2 21.5-3.1 40-1.4 41.3 3.2 1.5 5.2-13.6 15.8-31.5 23zM105 487.5c0 9.7 7.8 17.5 17.5 17.5h147.6c9.7 0 17.5-7.8 17.5-17.5s-7.8-17.5-17.5-17.5H122.5c-9.7 0-17.5 7.8-17.5 17.5z" p-id="2772"></path></svg>