<?xml version="1.0" standalone="no"?><!DOCTYPE svg PUBLIC "-//W3C//DTD SVG 1.1//EN" "http://www.w3.org/Graphics/SVG/1.1/DTD/svg11.dtd"><svg t="1673946420012" class="icon" viewBox="0 0 1024 1024" version="1.1" xmlns="http://www.w3.org/2000/svg" p-id="2934" xmlns:xlink="http://www.w3.org/1999/xlink" width="128" height="128"><path d="M694.272 322.56h12.288a25.088 25.088 0 0 0 25.6-24.576V174.592a25.088 25.088 0 0 0-25.6-24.576h-12.288a25.088 25.088 0 0 0-25.6 24.576v123.392a25.088 25.088 0 0 0 25.6 24.576zM315.392 322.56h12.288a25.088 25.088 0 0 0 25.6-24.576V174.592a25.088 25.088 0 0 0-25.6-24.576h-12.288a25.088 25.088 0 0 0-25.6 24.576v123.392a25.088 25.088 0 0 0 25.6 24.576z" fill="" p-id="2935"></path><path d="M803.328 215.04h-51.2V307.2a44.544 44.544 0 0 1-45.056 44.032h-12.288a44.544 44.544 0 0 1-45.568-44.032V215.04H373.248V307.2a44.544 44.544 0 0 1-45.056 44.032h-12.8A44.544 44.544 0 0 1 270.336 307.2V215.04h-51.2A67.072 67.072 0 0 0 153.6 281.6v525.312a67.072 67.072 0 0 0 67.072 67.072h582.656A67.072 67.072 0 0 0 870.4 806.912V282.112a67.072 67.072 0 0 0-67.072-67.072zM321.536 738.816a34.816 34.816 0 0 1-34.816 34.304H256a34.816 34.816 0 0 1-34.816-34.304v-11.264a34.816 34.816 0 0 1 34.816-34.304h30.72a34.816 34.816 0 0 1 34.816 34.304z m0-137.728a34.816 34.816 0 0 1-34.816 34.304H256a34.816 34.816 0 0 1-34.816-34.304v-11.264a34.816 34.816 0 0 1 34.816-34.304h30.72a34.816 34.816 0 0 1 34.816 34.816z m0-137.728a34.816 34.816 0 0 1-34.816 34.816H256a34.816 34.816 0 0 1-34.816-34.816v-10.752A34.816 34.816 0 0 1 256 417.792h30.72a34.816 34.816 0 0 1 34.816 34.816z m159.232 275.456a34.816 34.816 0 0 1-34.816 34.304h-32.768a34.816 34.816 0 0 1-34.816-34.304v-11.264a34.816 34.816 0 0 1 34.816-34.304h32.768a34.816 34.816 0 0 1 34.816 34.304z m0-137.728a34.816 34.816 0 0 1-34.816 34.304h-32.768a34.816 34.816 0 0 1-34.816-34.304v-11.264a34.816 34.816 0 0 1 34.816-34.816h32.768a34.816 34.816 0 0 1 34.816 34.816z m0-137.728a34.816 34.816 0 0 1-34.816 34.816h-32.768a34.816 34.816 0 0 1-34.816-34.816v-10.752a34.816 34.816 0 0 1 34.816-34.816h32.768a34.816 34.816 0 0 1 34.816 34.816z m164.864 137.728a34.816 34.816 0 0 1-34.816 34.304h-32.768a34.816 34.816 0 0 1-34.816-34.304v-11.264a34.816 34.816 0 0 1 34.816-34.816h32.768a34.816 34.816 0 0 1 34.816 34.816z m0-137.728a34.816 34.816 0 0 1-34.816 34.816h-32.768a34.816 34.816 0 0 1-34.816-34.816v-10.752a34.816 34.816 0 0 1 34.816-34.816h32.768a34.816 34.816 0 0 1 34.816 34.816z m159.232 137.728a34.816 34.816 0 0 1-34.816 34.304h-32.768a34.816 34.816 0 0 1-34.816-34.304v-11.264a34.816 34.816 0 0 1 34.816-34.816h30.72a34.816 34.816 0 0 1 34.816 34.816z m0-137.728a34.816 34.816 0 0 1-34.816 34.816h-32.768a34.816 34.816 0 0 1-34.816-34.816v-10.752a34.816 34.816 0 0 1 34.816-34.816h30.72a34.816 34.816 0 0 1 34.816 34.816z" fill="" p-id="2936"></path></svg>