<?xml version="1.0" standalone="no"?><!DOCTYPE svg PUBLIC "-//W3C//DTD SVG 1.1//EN" "http://www.w3.org/Graphics/SVG/1.1/DTD/svg11.dtd"><svg t="1688540952730" class="icon" viewBox="0 0 1024 1024" version="1.1" xmlns="http://www.w3.org/2000/svg" p-id="4103" xmlns:xlink="http://www.w3.org/1999/xlink" width="128" height="128"><path d="M320 224h608a32 32 0 0 0 0-64H320a32 32 0 0 0 0 64zM192 96H128a64 64 0 0 0-64 64v64a64 64 0 0 0 64 64h64a64 64 0 0 0 64-64v-64a64 64 0 0 0-64-64z m0 128H128v-64h64v64zM928 480H320a32 32 0 0 0 0 64h608a32 32 0 0 0 0-64zM192 416H128a64 64 0 0 0-64 64v64a64 64 0 0 0 64 64h64a64 64 0 0 0 64-64v-64a64 64 0 0 0-64-64z m0 128H128v-64h64v64zM416 800H320a32 32 0 0 0 0 64h96a32 32 0 0 0 0-64zM192 736H128a64 64 0 0 0-64 64v64a64 64 0 0 0 64 64h64a64 64 0 0 0 64-64v-64a64 64 0 0 0-64-64z m0 128H128v-64h64v64zM873.856 617.216l-202.624 202.624-106.688-106.688a30.72 30.72 0 1 0-43.456 43.456l123.648 123.712c1.344 2.24 2.496 4.608 4.352 6.592a32 32 0 0 0 24 9.088 30.72 30.72 0 0 0 21.76-9.024c0.768-0.704 1.024-1.6 1.6-2.432l222.4-222.336a31.872 31.872 0 0 0-44.992-44.992z" fill="" p-id="4104"></path></svg>